{
	"patcher" : 	{
		"fileversion" : 1,
		"appversion" : 		{
			"major" : 8,
			"minor" : 5,
			"revision" : 0,
			"architecture" : "x64",
			"modernui" : 1
		}
,
		"classnamespace" : "box",
		"rect" : [ 34.0, 87.0, 1077.0, 630.0 ],
		"bglocked" : 0,
		"openinpresentation" : 1,
		"default_fontsize" : 12.0,
		"default_fontface" : 0,
		"default_fontname" : "Arial",
		"gridonopen" : 1,
		"gridsize" : [ 15.0, 15.0 ],
		"gridsnaponopen" : 1,
		"objectsnaponopen" : 1,
		"statusbarvisible" : 2,
		"toolbarvisible" : 1,
		"lefttoolbarpinned" : 0,
		"toptoolbarpinned" : 0,
		"righttoolbarpinned" : 0,
		"bottomtoolbarpinned" : 0,
		"toolbars_unpinned_last_save" : 0,
		"tallnewobj" : 0,
		"boxanimatetime" : 200,
		"enablehscroll" : 1,
		"enablevscroll" : 1,
		"devicewidth" : 0.0,
		"description" : "",
		"digest" : "",
		"tags" : "",
		"style" : "",
		"subpatcher_template" : "",
		"assistshowspatchername" : 0,
		"boxes" : [ 			{
				"box" : 				{
					"id" : "obj-83",
					"maxclass" : "message",
					"numinlets" : 2,
					"numoutlets" : 1,
					"outlettype" : [ "" ],
					"patching_rect" : [ 670.0, 576.489745999999968, 41.0, 22.0 ],
					"text" : "pbr.ibl"
				}

			}
, 			{
				"box" : 				{
					"id" : "obj-84",
					"maxclass" : "newobj",
					"numinlets" : 1,
					"numoutlets" : 1,
					"outlettype" : [ "bang" ],
					"patching_rect" : [ 644.0, 576.489745999999968, 22.0, 22.0 ],
					"text" : "t b"
				}

			}
, 			{
				"box" : 				{
					"bgcolor" : [ 0.962713, 0.938393, 0.952793, 0.0 ],
					"button" : 1,
					"fontface" : 1,
					"fontname" : "Lato Regular",
					"fontsize" : 16.0,
					"htabcolor" : [ 0.952941, 0.564706, 0.098039, 1.0 ],
					"id" : "obj-73",
					"margin" : 5,
					"maxclass" : "tab",
					"numinlets" : 1,
					"numoutlets" : 3,
					"outlettype" : [ "int", "", "" ],
					"parameter_enable" : 0,
					"patching_rect" : [ 513.5, 569.489745999999968, 132.0, 34.0 ],
					"presentation" : 1,
					"presentation_rect" : [ 615.0, 291.0, 186.0, 47.0 ],
					"rounded" : 9.0,
					"spacing_x" : 12.0,
					"spacing_y" : 14.0,
					"tabcolor" : [ 0.664532, 0.706344, 0.714923, 1.0 ],
					"tabs" : [ "PBR IBL Demo" ],
					"textcolor" : [ 0.29971, 0.332965, 0.409308, 1.0 ]
				}

			}
, 			{
				"box" : 				{
					"fontsize" : 16.0,
					"id" : "obj-59",
					"maxclass" : "comment",
					"numinlets" : 1,
					"numoutlets" : 0,
					"patching_rect" : [ 515.5, 543.489745999999968, 128.0, 24.0 ],
					"presentation" : 1,
					"presentation_rect" : [ 659.0, 269.125439753737965, 85.0, 24.0 ],
					"text" : "PBR & IBL"
				}

			}
, 			{
				"box" : 				{
					"fontsize" : 16.0,
					"id" : "obj-82",
					"maxclass" : "comment",
					"numinlets" : 1,
					"numoutlets" : 0,
					"patching_rect" : [ 629.5, 263.125439753737965, 128.0, 24.0 ],
					"presentation" : 1,
					"presentation_rect" : [ 637.5, 358.0, 128.0, 24.0 ],
					"text" : "Misc Funtionality"
				}

			}
, 			{
				"box" : 				{
					"id" : "obj-81",
					"maxclass" : "message",
					"numinlets" : 2,
					"numoutlets" : 1,
					"outlettype" : [ "" ],
					"patching_rect" : [ 23.0, 358.349824098504882, 152.0, 22.0 ],
					"text" : "instancing.wobbly.wordpad"
				}

			}
, 			{
				"box" : 				{
					"fontsize" : 16.0,
					"id" : "obj-80",
					"linecount" : 2,
					"maxclass" : "comment",
					"numinlets" : 1,
					"numoutlets" : 0,
					"patching_rect" : [ 640.0, 452.0, 128.0, 42.0 ],
					"presentation" : 1,
					"presentation_rect" : [ 418.5, 260.125439753737965, 160.0, 24.0 ],
					"text" : "Shadertoy Multibuffer"
				}

			}
, 			{
				"box" : 				{
					"fontsize" : 16.0,
					"id" : "obj-79",
					"maxclass" : "comment",
					"numinlets" : 1,
					"numoutlets" : 0,
					"patching_rect" : [ 640.0, 354.0, 128.0, 24.0 ],
					"presentation" : 1,
					"presentation_rect" : [ 458.0, 135.0, 81.0, 24.0 ],
					"text" : "Shadertoy"
				}

			}
, 			{
				"box" : 				{
					"id" : "obj-78",
					"maxclass" : "message",
					"numinlets" : 2,
					"numoutlets" : 1,
					"outlettype" : [ "" ],
					"patching_rect" : [ 563.0, 437.823884337884351, 93.0, 22.0 ],
					"text" : "shadertoy.audio"
				}

			}
, 			{
				"box" : 				{
					"id" : "obj-77",
					"maxclass" : "message",
					"numinlets" : 2,
					"numoutlets" : 1,
					"outlettype" : [ "" ],
					"patching_rect" : [ 653.0, 437.823884337884351, 123.0, 22.0 ],
					"text" : "shadertoy.buffers.goo"
				}

			}
, 			{
				"box" : 				{
					"id" : "obj-68",
					"maxclass" : "newobj",
					"numinlets" : 3,
					"numoutlets" : 3,
					"outlettype" : [ "bang", "bang", "" ],
					"patching_rect" : [ 648.0, 381.300351802990235, 44.0, 22.0 ],
					"text" : "sel 0 1"
				}

			}
, 			{
				"box" : 				{
					"id" : "obj-65",
					"maxclass" : "newobj",
					"numinlets" : 3,
					"numoutlets" : 3,
					"outlettype" : [ "bang", "bang", "" ],
					"patching_rect" : [ 563.0, 381.300351802990235, 44.0, 22.0 ],
					"text" : "sel 0 1"
				}

			}
, 			{
				"box" : 				{
					"id" : "obj-60",
					"maxclass" : "message",
					"numinlets" : 2,
					"numoutlets" : 1,
					"outlettype" : [ "" ],
					"patching_rect" : [ 660.5, 415.0, 90.0, 22.0 ],
					"text" : "molten.bismuth"
				}

			}
, 			{
				"box" : 				{
					"bgcolor" : [ 0.962713, 0.938393, 0.952793, 0.0 ],
					"button" : 1,
					"fontface" : 1,
					"fontname" : "Lato Regular",
					"fontsize" : 16.0,
					"htabcolor" : [ 0.952941, 0.564706, 0.098039, 1.0 ],
					"id" : "obj-57",
					"margin" : 5,
					"maxclass" : "tab",
					"numinlets" : 1,
					"numoutlets" : 3,
					"outlettype" : [ "int", "", "" ],
					"parameter_enable" : 0,
					"patching_rect" : [ 648.0, 322.024736147757324, 94.0, 58.901055408970933 ],
					"presentation" : 1,
					"presentation_rect" : [ 405.5, 282.0, 186.0, 93.526495162708841 ],
					"rounded" : 9.0,
					"spacing_x" : 12.0,
					"spacing_y" : 14.0,
					"tabcolor" : [ 0.664532, 0.706344, 0.714923, 1.0 ],
					"tabs" : [ "Goo", "Molten Bismuth" ],
					"textcolor" : [ 0.29971, 0.332965, 0.409308, 1.0 ]
				}

			}
, 			{
				"box" : 				{
					"bgcolor" : [ 0.962713, 0.938393, 0.952793, 0.0 ],
					"button" : 1,
					"fontface" : 1,
					"fontname" : "Lato Regular",
					"fontsize" : 16.0,
					"htabcolor" : [ 0.952941, 0.564706, 0.098039, 1.0 ],
					"id" : "obj-53",
					"margin" : 5,
					"maxclass" : "tab",
					"numinlets" : 1,
					"numoutlets" : 3,
					"outlettype" : [ "int", "", "" ],
					"parameter_enable" : 0,
					"patching_rect" : [ 563.0, 322.024736147757324, 86.0, 54.650175901495118 ],
					"presentation" : 1,
					"presentation_rect" : [ 405.5, 158.0, 186.0, 93.526495162708841 ],
					"rounded" : 9.0,
					"spacing_x" : 12.0,
					"spacing_y" : 14.0,
					"tabcolor" : [ 0.664532, 0.706344, 0.714923, 1.0 ],
					"tabs" : [ "Basic Loader", "Audio Visualizer" ],
					"textcolor" : [ 0.29971, 0.332965, 0.409308, 1.0 ]
				}

			}
, 			{
				"box" : 				{
					"id" : "obj-51",
					"maxclass" : "message",
					"numinlets" : 2,
					"numoutlets" : 1,
					"outlettype" : [ "" ],
					"patching_rect" : [ 563.0, 415.0, 97.0, 22.0 ],
					"text" : "shadertoy.loader"
				}

			}
, 			{
				"box" : 				{
					"id" : "obj-39",
					"maxclass" : "message",
					"numinlets" : 2,
					"numoutlets" : 1,
					"outlettype" : [ "" ],
					"patching_rect" : [ 670.0, 513.800351802990349, 127.0, 22.0 ],
					"text" : "average.color.mipmap"
				}

			}
, 			{
				"box" : 				{
					"id" : "obj-45",
					"maxclass" : "newobj",
					"numinlets" : 1,
					"numoutlets" : 1,
					"outlettype" : [ "bang" ],
					"patching_rect" : [ 644.0, 513.800351802990349, 22.0, 22.0 ],
					"text" : "t b"
				}

			}
, 			{
				"box" : 				{
					"bgcolor" : [ 0.962713, 0.938393, 0.952793, 0.0 ],
					"button" : 1,
					"fontface" : 1,
					"fontname" : "Lato Regular",
					"fontsize" : 16.0,
					"htabcolor" : [ 0.952941, 0.564706, 0.098039, 1.0 ],
					"id" : "obj-47",
					"margin" : 5,
					"maxclass" : "tab",
					"numinlets" : 1,
					"numoutlets" : 3,
					"outlettype" : [ "int", "", "" ],
					"parameter_enable" : 0,
					"patching_rect" : [ 644.0, 474.800351802990235, 132.0, 34.0 ],
					"presentation" : 1,
					"presentation_rect" : [ 615.0, 533.5, 186.0, 49.0 ],
					"rounded" : 9.0,
					"spacing_x" : 12.0,
					"spacing_y" : 14.0,
					"tabcolor" : [ 0.664532, 0.706344, 0.714923, 1.0 ],
					"tabs" : [ "Average Color Mipmap" ],
					"textcolor" : [ 0.29971, 0.332965, 0.409308, 1.0 ]
				}

			}
, 			{
				"box" : 				{
					"id" : "obj-17",
					"maxclass" : "message",
					"numinlets" : 2,
					"numoutlets" : 1,
					"outlettype" : [ "" ],
					"patching_rect" : [ 421.0, 513.800351802990349, 70.0, 22.0 ],
					"text" : "tf.curl.noise"
				}

			}
, 			{
				"box" : 				{
					"fontface" : 2,
					"id" : "obj-50",
					"maxclass" : "comment",
					"numinlets" : 1,
					"numoutlets" : 0,
					"patching_rect" : [ 882.0, 576.489745999999968, 335.0, 20.0 ],
					"presentation" : 1,
					"presentation_linecount" : 2,
					"presentation_rect" : [ 859.0, 522.098944591029067, 180.0, 33.0 ],
					"text" : "glcore installs and updates as part of the Jitter Tools Package"
				}

			}
, 			{
				"box" : 				{
					"id" : "obj-75",
					"maxclass" : "message",
					"numinlets" : 2,
					"numoutlets" : 1,
					"outlettype" : [ "" ],
					"patching_rect" : [ 825.0, 513.800351802990349, 125.0, 22.0 ],
					"text" : "gl3.sketch.commands"
				}

			}
, 			{
				"box" : 				{
					"id" : "obj-76",
					"maxclass" : "newobj",
					"numinlets" : 1,
					"numoutlets" : 1,
					"outlettype" : [ "bang" ],
					"patching_rect" : [ 799.0, 513.800351802990349, 22.0, 22.0 ],
					"text" : "t b"
				}

			}
, 			{
				"box" : 				{
					"id" : "obj-74",
					"maxclass" : "message",
					"numinlets" : 2,
					"numoutlets" : 1,
					"outlettype" : [ "" ],
					"patching_rect" : [ 825.0, 442.652583127221646, 187.0, 22.0 ],
					"text" : "cull_face.2pass.transparent.faces"
				}

			}
, 			{
				"box" : 				{
					"id" : "obj-72",
					"maxclass" : "newobj",
					"numinlets" : 1,
					"numoutlets" : 1,
					"outlettype" : [ "bang" ],
					"patching_rect" : [ 799.0, 442.652583127221646, 22.0, 22.0 ],
					"text" : "t b"
				}

			}
, 			{
				"box" : 				{
					"bgcolor" : [ 0.962713, 0.938393, 0.952793, 0.0 ],
					"button" : 1,
					"fontface" : 1,
					"fontname" : "Lato Regular",
					"fontsize" : 16.0,
					"htabcolor" : [ 0.952941, 0.564706, 0.098039, 1.0 ],
					"id" : "obj-71",
					"margin" : 5,
					"maxclass" : "tab",
					"numinlets" : 1,
					"numoutlets" : 3,
					"outlettype" : [ "int", "", "" ],
					"parameter_enable" : 0,
					"patching_rect" : [ 799.0, 474.800351802990235, 132.0, 34.0 ],
					"presentation" : 1,
					"presentation_rect" : [ 615.0, 482.5, 186.0, 49.0 ],
					"rounded" : 9.0,
					"spacing_x" : 12.0,
					"spacing_y" : 14.0,
					"tabcolor" : [ 0.664532, 0.706344, 0.714923, 1.0 ],
					"tabs" : [ "Sketch Commands" ],
					"textcolor" : [ 0.29971, 0.332965, 0.409308, 1.0 ]
				}

			}
, 			{
				"box" : 				{
					"id" : "obj-70",
					"maxclass" : "newobj",
					"numinlets" : 1,
					"numoutlets" : 1,
					"outlettype" : [ "bang" ],
					"patching_rect" : [ 804.5, 381.300351802990235, 22.0, 22.0 ],
					"text" : "t b"
				}

			}
, 			{
				"box" : 				{
					"id" : "obj-69",
					"maxclass" : "message",
					"numinlets" : 2,
					"numoutlets" : 1,
					"outlettype" : [ "" ],
					"patching_rect" : [ 828.5, 381.300351802990235, 99.0, 22.0 ],
					"text" : "point.mode.basic"
				}

			}
, 			{
				"box" : 				{
					"id" : "obj-67",
					"maxclass" : "newobj",
					"numinlets" : 3,
					"numoutlets" : 3,
					"outlettype" : [ "bang", "bang", "" ],
					"patching_rect" : [ 784.5, 265.0, 44.0, 22.0 ],
					"text" : "sel 0 1"
				}

			}
, 			{
				"box" : 				{
					"id" : "obj-66",
					"maxclass" : "message",
					"numinlets" : 2,
					"numoutlets" : 1,
					"outlettype" : [ "" ],
					"patching_rect" : [ 784.5, 288.5, 85.0, 22.0 ],
					"text" : "tf.vecfield.2tex"
				}

			}
, 			{
				"box" : 				{
					"id" : "obj-64",
					"maxclass" : "message",
					"numinlets" : 2,
					"numoutlets" : 1,
					"outlettype" : [ "" ],
					"patching_rect" : [ 797.0, 311.5, 102.0, 22.0 ],
					"text" : "tf.galaxy.chickens"
				}

			}
, 			{
				"box" : 				{
					"id" : "obj-63",
					"maxclass" : "message",
					"numinlets" : 2,
					"numoutlets" : 1,
					"outlettype" : [ "" ],
					"patching_rect" : [ 607.0, 252.0, 149.0, 22.0 ],
					"text" : "jxs.include.raymarch.basic"
				}

			}
, 			{
				"box" : 				{
					"id" : "obj-62",
					"maxclass" : "message",
					"numinlets" : 2,
					"numoutlets" : 1,
					"outlettype" : [ "" ],
					"patching_rect" : [ 607.0, 276.0, 118.0, 22.0 ],
					"text" : "jxs.include.raymarch"
				}

			}
, 			{
				"box" : 				{
					"id" : "obj-61",
					"maxclass" : "message",
					"numinlets" : 2,
					"numoutlets" : 1,
					"outlettype" : [ "" ],
					"patching_rect" : [ 607.0, 228.0, 87.0, 22.0 ],
					"text" : "jxs.include.test"
				}

			}
, 			{
				"box" : 				{
					"id" : "obj-58",
					"maxclass" : "newobj",
					"numinlets" : 4,
					"numoutlets" : 4,
					"outlettype" : [ "bang", "bang", "bang", "" ],
					"patching_rect" : [ 626.0, 192.5, 80.0, 22.0 ],
					"text" : "sel 0 1 2"
				}

			}
, 			{
				"box" : 				{
					"fontsize" : 16.0,
					"id" : "obj-52",
					"maxclass" : "comment",
					"numinlets" : 1,
					"numoutlets" : 0,
					"patching_rect" : [ 778.0, 151.0, 116.0, 24.0 ],
					"presentation" : 1,
					"presentation_rect" : [ 651.0, 135.0, 101.0, 24.0 ],
					"text" : "Vector Fields"
				}

			}
, 			{
				"box" : 				{
					"bgcolor" : [ 0.962713, 0.938393, 0.952793, 0.0 ],
					"button" : 1,
					"fontface" : 1,
					"fontname" : "Lato Regular",
					"fontsize" : 16.0,
					"htabcolor" : [ 0.952941, 0.564706, 0.098039, 1.0 ],
					"id" : "obj-56",
					"margin" : 5,
					"maxclass" : "tab",
					"numinlets" : 1,
					"numoutlets" : 3,
					"outlettype" : [ "int", "", "" ],
					"parameter_enable" : 0,
					"patching_rect" : [ 784.5, 177.0, 172.0, 87.0 ],
					"presentation" : 1,
					"presentation_rect" : [ 615.0, 158.0, 186.0, 93.526495162708841 ],
					"rounded" : 9.0,
					"spacing_x" : 12.0,
					"spacing_y" : 14.0,
					"tabcolor" : [ 0.664532, 0.706344, 0.714923, 1.0 ],
					"tabs" : [ "2 Texture", "Chicken Galaxy" ],
					"textcolor" : [ 0.29971, 0.332965, 0.409308, 1.0 ]
				}

			}
, 			{
				"box" : 				{
					"bgcolor" : [ 0.962713, 0.938393, 0.952793, 0.0 ],
					"button" : 1,
					"fontface" : 1,
					"fontname" : "Lato Regular",
					"fontsize" : 16.0,
					"htabcolor" : [ 0.952941, 0.564706, 0.098039, 1.0 ],
					"id" : "obj-49",
					"margin" : 5,
					"maxclass" : "tab",
					"numinlets" : 1,
					"numoutlets" : 3,
					"outlettype" : [ "int", "", "" ],
					"parameter_enable" : 0,
					"patching_rect" : [ 799.0, 403.124236140874586, 132.0, 34.0 ],
					"presentation" : 1,
					"presentation_rect" : [ 615.0, 430.874560246262035, 186.0, 49.0 ],
					"rounded" : 9.0,
					"spacing_x" : 12.0,
					"spacing_y" : 14.0,
					"tabcolor" : [ 0.664532, 0.706344, 0.714923, 1.0 ],
					"tabs" : [ "Cullface 2 Pass" ],
					"textcolor" : [ 0.29971, 0.332965, 0.409308, 1.0 ]
				}

			}
, 			{
				"box" : 				{
					"bgcolor" : [ 0.962713, 0.938393, 0.952793, 0.0 ],
					"button" : 1,
					"fontface" : 1,
					"fontname" : "Lato Regular",
					"fontsize" : 16.0,
					"htabcolor" : [ 0.952941, 0.564706, 0.098039, 1.0 ],
					"id" : "obj-46",
					"margin" : 5,
					"maxclass" : "tab",
					"numinlets" : 1,
					"numoutlets" : 3,
					"outlettype" : [ "int", "", "" ],
					"parameter_enable" : 0,
					"patching_rect" : [ 804.5, 341.0, 132.0, 34.0 ],
					"presentation" : 1,
					"presentation_rect" : [ 615.0, 379.874560246262035, 186.0, 49.0 ],
					"rounded" : 9.0,
					"spacing_x" : 12.0,
					"spacing_y" : 14.0,
					"tabcolor" : [ 0.664532, 0.706344, 0.714923, 1.0 ],
					"tabs" : [ "Point Mode" ],
					"textcolor" : [ 0.29971, 0.332965, 0.409308, 1.0 ]
				}

			}
, 			{
				"box" : 				{
					"bgcolor" : [ 0.962713, 0.938393, 0.952793, 0.0 ],
					"button" : 1,
					"fontface" : 1,
					"fontname" : "Lato Regular",
					"fontsize" : 16.0,
					"htabcolor" : [ 0.952941, 0.564706, 0.098039, 1.0 ],
					"id" : "obj-24",
					"margin" : 5,
					"maxclass" : "tab",
					"numinlets" : 1,
					"numoutlets" : 3,
					"outlettype" : [ "int", "", "" ],
					"parameter_enable" : 0,
					"patching_rect" : [ 595.0, 98.0, 161.0, 94.0 ],
					"presentation" : 1,
					"presentation_rect" : [ 405.5, 404.773856640281394, 186.0, 93.0 ],
					"rounded" : 9.0,
					"spacing_x" : 12.0,
					"spacing_y" : 14.0,
					"tabcolor" : [ 0.664532, 0.706344, 0.714923, 1.0 ],
					"tabs" : [ "Basic Raymarch", "Advanced Raymarch" ],
					"textcolor" : [ 0.29971, 0.332965, 0.409308, 1.0 ]
				}

			}
, 			{
				"box" : 				{
					"fontsize" : 16.0,
					"id" : "obj-4",
					"maxclass" : "comment",
					"numinlets" : 1,
					"numoutlets" : 0,
					"patching_rect" : [ 603.0, 72.0, 128.0, 24.0 ],
					"presentation" : 1,
					"presentation_rect" : [ 441.0, 382.526495162708841, 115.0, 24.0 ],
					"text" : "Raymarch Libs"
				}

			}
, 			{
				"box" : 				{
					"handoff" : "",
					"id" : "obj-54",
					"maxclass" : "ubutton",
					"numinlets" : 1,
					"numoutlets" : 4,
					"outlettype" : [ "bang", "bang", "", "int" ],
					"parameter_enable" : 0,
					"patching_rect" : [ 1002.0, 493.098944591029067, 180.0, 22.0 ],
					"presentation" : 1,
					"presentation_rect" : [ 859.0, 557.098944591029067, 180.0, 22.0 ]
				}

			}
, 			{
				"box" : 				{
					"fontface" : 2,
					"fontsize" : 14.0,
					"id" : "obj-55",
					"maxclass" : "comment",
					"numinlets" : 1,
					"numoutlets" : 0,
					"patching_rect" : [ 1002.0, 493.098944591029067, 174.0, 22.0 ],
					"presentation" : 1,
					"presentation_rect" : [ 859.0, 557.098944591029067, 174.0, 22.0 ],
					"text" : "Open Jitter Tools Package",
					"underline" : 1
				}

			}
, 			{
				"box" : 				{
					"id" : "obj-48",
					"linecount" : 2,
					"maxclass" : "message",
					"numinlets" : 2,
					"numoutlets" : 1,
					"outlettype" : [ "" ],
					"patching_rect" : [ 1002.0, 520.407135380366412, 192.0, 35.0 ],
					"text" : ";\rmax packagebrowser \"Jitter Tools\""
				}

			}
, 			{
				"box" : 				{
					"id" : "obj-44",
					"maxclass" : "message",
					"numinlets" : 2,
					"numoutlets" : 1,
					"outlettype" : [ "" ],
					"patching_rect" : [ 23.0, 507.47165301365294, 107.0, 22.0 ],
					"text" : "equirect.360.video"
				}

			}
, 			{
				"box" : 				{
					"id" : "obj-43",
					"maxclass" : "newobj",
					"numinlets" : 1,
					"numoutlets" : 1,
					"outlettype" : [ "bang" ],
					"patching_rect" : [ 208.5, 390.0, 22.0, 22.0 ],
					"text" : "t b"
				}

			}
, 			{
				"box" : 				{
					"id" : "obj-42",
					"maxclass" : "message",
					"numinlets" : 2,
					"numoutlets" : 1,
					"outlettype" : [ "" ],
					"patching_rect" : [ 229.0, 390.0, 91.0, 22.0 ],
					"text" : "tb.pl.disco.duck"
				}

			}
, 			{
				"box" : 				{
					"id" : "obj-40",
					"maxclass" : "message",
					"numinlets" : 2,
					"numoutlets" : 1,
					"outlettype" : [ "" ],
					"patching_rect" : [ 421.0, 493.098944591029067, 63.0, 22.0 ],
					"text" : "tf.oil.water"
				}

			}
, 			{
				"box" : 				{
					"id" : "obj-38",
					"maxclass" : "message",
					"numinlets" : 2,
					"numoutlets" : 1,
					"outlettype" : [ "" ],
					"patching_rect" : [ 421.0, 445.749120492524185, 43.0, 22.0 ],
					"text" : "tf.flock"
				}

			}
, 			{
				"box" : 				{
					"id" : "obj-15",
					"maxclass" : "message",
					"numinlets" : 2,
					"numoutlets" : 1,
					"outlettype" : [ "" ],
					"patching_rect" : [ 421.0, 469.098944591029067, 112.0, 22.0 ],
					"text" : "tf.strange.attractors"
				}

			}
, 			{
				"box" : 				{
					"bgcolor" : [ 0.962713, 0.938393, 0.952793, 0.0 ],
					"button" : 1,
					"fontface" : 1,
					"fontname" : "Lato Regular",
					"fontsize" : 16.0,
					"htabcolor" : [ 0.952941, 0.564706, 0.098039, 1.0 ],
					"id" : "obj-13",
					"margin" : 5,
					"maxclass" : "tab",
					"numinlets" : 1,
					"numoutlets" : 3,
					"outlettype" : [ "int", "", "" ],
					"parameter_enable" : 0,
					"patching_rect" : [ 204.0, 352.349824098504882, 132.0, 34.0 ],
					"presentation" : 1,
					"presentation_rect" : [ 405.5, 533.5, 186.0, 46.0 ],
					"rounded" : 9.0,
					"spacing_x" : 12.0,
					"spacing_y" : 14.0,
					"tabcolor" : [ 0.664532, 0.706344, 0.714923, 1.0 ],
					"tabs" : [ "Point Lights" ],
					"textcolor" : [ 0.29971, 0.332965, 0.409308, 1.0 ]
				}

			}
, 			{
				"box" : 				{
					"fontsize" : 16.0,
					"id" : "obj-11",
					"maxclass" : "comment",
					"numinlets" : 1,
					"numoutlets" : 0,
					"patching_rect" : [ 204.0, 415.0, 109.0, 24.0 ],
					"presentation" : 1,
					"presentation_rect" : [ 443.0, 507.5, 111.0, 24.0 ],
					"text" : "Texture Buffer"
				}

			}
, 			{
				"box" : 				{
					"id" : "obj-37",
					"maxclass" : "message",
					"numinlets" : 2,
					"numoutlets" : 1,
					"outlettype" : [ "" ],
					"patching_rect" : [ 421.0, 422.399296394019416, 76.0, 22.0 ],
					"text" : "tf.particles.fx"
				}

			}
, 			{
				"box" : 				{
					"id" : "obj-32",
					"maxclass" : "message",
					"numinlets" : 2,
					"numoutlets" : 1,
					"outlettype" : [ "" ],
					"patching_rect" : [ 421.0, 399.049472295514533, 112.0, 22.0 ],
					"text" : "tf.particles.billboard"
				}

			}
, 			{
				"box" : 				{
					"id" : "obj-33",
					"maxclass" : "message",
					"numinlets" : 2,
					"numoutlets" : 1,
					"outlettype" : [ "" ],
					"patching_rect" : [ 421.0, 375.699648197009708, 101.0, 22.0 ],
					"text" : "tf.particles.simple"
				}

			}
, 			{
				"box" : 				{
					"id" : "obj-34",
					"maxclass" : "message",
					"numinlets" : 2,
					"numoutlets" : 1,
					"outlettype" : [ "" ],
					"patching_rect" : [ 421.0, 352.349824098504882, 50.0, 22.0 ],
					"text" : "tf.sculpt"
				}

			}
, 			{
				"box" : 				{
					"id" : "obj-35",
					"maxclass" : "message",
					"numinlets" : 2,
					"numoutlets" : 1,
					"outlettype" : [ "" ],
					"patching_rect" : [ 421.0, 329.0, 108.0, 22.0 ],
					"text" : "tf.basic.locomotion"
				}

			}
, 			{
				"box" : 				{
					"id" : "obj-36",
					"maxclass" : "newobj",
					"numinlets" : 10,
					"numoutlets" : 10,
					"outlettype" : [ "bang", "bang", "bang", "bang", "bang", "bang", "bang", "bang", "bang", "" ],
					"patching_rect" : [ 421.0, 297.0, 114.0, 22.0 ],
					"text" : "sel 0 1 2 3 4 5 6 7 8"
				}

			}
, 			{
				"box" : 				{
					"id" : "obj-31",
					"maxclass" : "message",
					"numinlets" : 2,
					"numoutlets" : 1,
					"outlettype" : [ "" ],
					"patching_rect" : [ 23.0, 483.47165301365294, 124.0, 22.0 ],
					"text" : "cubemap.psychedelic"
				}

			}
, 			{
				"box" : 				{
					"id" : "obj-30",
					"maxclass" : "message",
					"numinlets" : 2,
					"numoutlets" : 1,
					"outlettype" : [ "" ],
					"patching_rect" : [ 23.0, 460.647768675768646, 151.0, 22.0 ],
					"text" : "cubemap.6camera.capture"
				}

			}
, 			{
				"box" : 				{
					"id" : "obj-20",
					"maxclass" : "message",
					"numinlets" : 2,
					"numoutlets" : 1,
					"outlettype" : [ "" ],
					"patching_rect" : [ 23.0, 437.823884337884351, 94.0, 22.0 ],
					"text" : "tex3d.bfg.distort"
				}

			}
, 			{
				"box" : 				{
					"id" : "obj-25",
					"maxclass" : "message",
					"numinlets" : 2,
					"numoutlets" : 1,
					"outlettype" : [ "" ],
					"patching_rect" : [ 23.0, 415.0, 73.0, 22.0 ],
					"text" : "tex3d.warpy"
				}

			}
, 			{
				"box" : 				{
					"id" : "obj-29",
					"maxclass" : "newobj",
					"numinlets" : 6,
					"numoutlets" : 6,
					"outlettype" : [ "bang", "bang", "bang", "bang", "bang", "" ],
					"patching_rect" : [ 23.0, 390.0, 107.0, 22.0 ],
					"text" : "sel 0 1 2 3 4"
				}

			}
, 			{
				"box" : 				{
					"id" : "obj-19",
					"maxclass" : "message",
					"numinlets" : 2,
					"numoutlets" : 1,
					"outlettype" : [ "" ],
					"patching_rect" : [ 23.0, 338.349824098504882, 107.0, 22.0 ],
					"text" : "instancing.multiple"
				}

			}
, 			{
				"box" : 				{
					"id" : "obj-16",
					"maxclass" : "message",
					"numinlets" : 2,
					"numoutlets" : 1,
					"outlettype" : [ "" ],
					"patching_rect" : [ 23.0, 317.0, 95.0, 22.0 ],
					"text" : "instancing.mesh"
				}

			}
, 			{
				"box" : 				{
					"id" : "obj-2",
					"maxclass" : "newobj",
					"numinlets" : 4,
					"numoutlets" : 4,
					"outlettype" : [ "bang", "bang", "bang", "" ],
					"patching_rect" : [ 23.0, 282.849824098504882, 54.0, 22.0 ],
					"text" : "sel 0 1 2"
				}

			}
, 			{
				"box" : 				{
					"fontsize" : 24.0,
					"id" : "obj-14",
					"maxclass" : "comment",
					"numinlets" : 1,
					"numoutlets" : 0,
					"patching_rect" : [ 969.0, 277.349824098504882, 126.0, 33.0 ],
					"presentation" : 1,
					"presentation_rect" : [ 859.0, 121.0, 131.0, 33.0 ],
					"text" : "DOCS:"
				}

			}
, 			{
				"box" : 				{
					"fontsize" : 18.0,
					"id" : "obj-10",
					"maxclass" : "textbutton",
					"numinlets" : 1,
					"numoutlets" : 3,
					"outlettype" : [ "", "", "int" ],
					"parameter_enable" : 0,
					"patching_rect" : [ 984.0, 312.349824098504882, 151.0, 33.0 ],
					"presentation" : 1,
					"presentation_rect" : [ 859.0, 161.0, 182.0, 43.0 ],
					"text" : "OpenGL Topics"
				}

			}
, 			{
				"box" : 				{
					"id" : "obj-22",
					"linecount" : 3,
					"maxclass" : "message",
					"numinlets" : 2,
					"numoutlets" : 1,
					"outlettype" : [ "" ],
					"patching_rect" : [ 984.0, 357.349824098504882, 216.0, 49.0 ],
					"text" : ";\rmax opendoc working_with_opengl_topic.maxvig.xml"
				}

			}
, 			{
				"box" : 				{
					"fontsize" : 16.0,
					"id" : "obj-8",
					"linecount" : 2,
					"maxclass" : "comment",
					"numinlets" : 1,
					"numoutlets" : 0,
					"patching_rect" : [ 204.0, 172.5, 128.0, 42.0 ],
					"presentation" : 1,
					"presentation_rect" : [ 16.5, 324.5, 189.0, 24.0 ],
					"text" : "3D Textures + Cubemaps"
				}

			}
, 			{
				"box" : 				{
					"bgcolor" : [ 0.962713, 0.938393, 0.952793, 0.0 ],
					"button" : 1,
					"fontface" : 1,
					"fontname" : "Lato Regular",
					"fontsize" : 16.0,
					"htabcolor" : [ 0.952941, 0.564706, 0.098039, 1.0 ],
					"id" : "obj-9",
					"margin" : 5,
					"maxclass" : "tab",
					"numinlets" : 1,
					"numoutlets" : 3,
					"outlettype" : [ "int", "", "" ],
					"parameter_enable" : 0,
					"patching_rect" : [ 204.0, 200.5, 172.0, 148.0 ],
					"presentation" : 1,
					"presentation_rect" : [ 16.5, 348.0, 192.0, 232.0 ],
					"rounded" : 9.0,
					"spacing_x" : 12.0,
					"spacing_y" : 14.0,
					"tabcolor" : [ 0.664532, 0.706344, 0.714923, 1.0 ],
					"tabs" : [ "3D Texture 1", "3D Texture 2", "Cube Map 1", "Cube Map 2", "Equirect 360 Video" ],
					"textcolor" : [ 0.29971, 0.332965, 0.409308, 1.0 ]
				}

			}
, 			{
				"box" : 				{
					"fontsize" : 16.0,
					"id" : "obj-6",
					"maxclass" : "comment",
					"numinlets" : 1,
					"numoutlets" : 0,
					"patching_rect" : [ 204.0, 48.0, 116.0, 24.0 ],
					"presentation" : 1,
					"presentation_rect" : [ 51.0, 135.0, 123.0, 24.0 ],
					"text" : "GPU Instances"
				}

			}
, 			{
				"box" : 				{
					"bgcolor" : [ 0.962713, 0.938393, 0.952793, 0.0 ],
					"button" : 1,
					"fontface" : 1,
					"fontname" : "Lato Regular",
					"fontsize" : 16.0,
					"htabcolor" : [ 0.952941, 0.564706, 0.098039, 1.0 ],
					"id" : "obj-7",
					"margin" : 5,
					"maxclass" : "tab",
					"numinlets" : 1,
					"numoutlets" : 3,
					"outlettype" : [ "int", "", "" ],
					"parameter_enable" : 0,
					"patching_rect" : [ 204.0, 74.0, 172.0, 87.0 ],
					"presentation" : 1,
					"presentation_rect" : [ 16.5, 158.0, 192.0, 141.0 ],
					"rounded" : 9.0,
					"spacing_x" : 12.0,
					"spacing_y" : 14.0,
					"tabcolor" : [ 0.664532, 0.706344, 0.714923, 1.0 ],
					"tabs" : [ "Mesh Instances", "Multiple Instances", "Wobbly Wordpad" ],
					"textcolor" : [ 0.29971, 0.332965, 0.409308, 1.0 ]
				}

			}
, 			{
				"box" : 				{
					"fontsize" : 16.0,
					"id" : "obj-5",
					"maxclass" : "comment",
					"numinlets" : 1,
					"numoutlets" : 0,
					"patching_rect" : [ 421.0, 50.0, 176.0, 24.0 ],
					"presentation" : 1,
					"presentation_rect" : [ 222.5, 135.0, 156.0, 24.0 ],
					"text" : "Transform Feedback"
				}

			}
, 			{
				"box" : 				{
					"fontsize" : 14.0,
					"id" : "obj-23",
					"linecount" : 5,
					"maxclass" : "comment",
					"numinlets" : 1,
					"numoutlets" : 0,
					"patching_rect" : [ 13.0, 128.0, 196.0, 85.0 ],
					"presentation" : 1,
					"presentation_linecount" : 2,
					"presentation_rect" : [ 430.5, 36.0, 462.0, 38.0 ],
					"text" : "glcore adds support for the modern Core Profile features of OpenGL. To see how this impacts Jitter, explore the examples and docs provided."
				}

			}
, 			{
				"box" : 				{
					"fontface" : 1,
					"fontsize" : 48.0,
					"id" : "obj-21",
					"linecount" : 3,
					"maxclass" : "comment",
					"numinlets" : 1,
					"numoutlets" : 0,
					"patching_rect" : [ 13.0, 14.0, 166.0, 167.0 ],
					"presentation" : 1,
					"presentation_rect" : [ 21.0, 25.0, 390.0, 60.0 ],
					"text" : "glcore Examples"
				}

			}
, 			{
				"box" : 				{
					"fontsize" : 24.0,
					"id" : "obj-18",
					"linecount" : 2,
					"maxclass" : "comment",
					"numinlets" : 1,
					"numoutlets" : 0,
					"patching_rect" : [ 955.0, 30.0, 126.0, 60.0 ],
					"presentation" : 1,
					"presentation_rect" : [ 859.0, 234.0, 189.0, 33.0 ],
					"text" : "NEW OBJECTS:"
				}

			}
, 			{
				"box" : 				{
					"bgcolor" : [ 0.962713, 0.938393, 0.952793, 0.0 ],
					"button" : 1,
					"fontface" : 1,
					"fontname" : "Lato Regular",
					"fontsize" : 16.0,
					"htabcolor" : [ 0.952941, 0.564706, 0.098039, 1.0 ],
					"id" : "obj-41",
					"margin" : 5,
					"maxclass" : "tab",
					"numinlets" : 1,
					"numoutlets" : 3,
					"outlettype" : [ "int", "", "" ],
					"parameter_enable" : 0,
					"patching_rect" : [ 421.0, 98.0, 176.0, 189.0 ],
					"presentation" : 1,
					"presentation_rect" : [ 207.5, 158.0, 186.0, 421.5 ],
					"rounded" : 9.0,
					"spacing_x" : 12.0,
					"spacing_y" : 14.0,
					"tabcolor" : [ 0.664532, 0.706344, 0.714923, 1.0 ],
					"tabs" : [ "Basic", "Sculpt", "Simple Particles", "Billboard Particles", "Particle FX", "Flocking", "Strange Attractors", "Oil & Water", "Curl Noise" ],
					"textcolor" : [ 0.29971, 0.332965, 0.409308, 1.0 ]
				}

			}
, 			{
				"box" : 				{
					"bgcolor" : [ 0.962713, 0.938393, 0.952793, 0.0 ],
					"button" : 1,
					"fontface" : 1,
					"fontname" : "Lato Regular",
					"fontsize" : 16.0,
					"htabcolor" : [ 0.952941, 0.564706, 0.098039, 1.0 ],
					"id" : "obj-12",
					"margin" : 5,
					"maxclass" : "tab",
					"numinlets" : 1,
					"numoutlets" : 3,
					"outlettype" : [ "int", "", "" ],
					"parameter_enable" : 0,
					"patching_rect" : [ 955.0, 73.0, 161.0, 94.0 ],
					"presentation" : 1,
					"presentation_rect" : [ 855.0, 269.0, 186.0, 225.0 ],
					"rounded" : 9.0,
					"spacing_x" : 12.0,
					"spacing_y" : 14.0,
					"tabcolor" : [ 0.664532, 0.706344, 0.714923, 1.0 ],
					"tabs" : [ "jit.gl.tf", "jit.gl.buffer", "jit.gl.pbr", "jit.gl.environment" ],
					"textcolor" : [ 0.29971, 0.332965, 0.409308, 1.0 ]
				}

			}
, 			{
				"box" : 				{
					"fontname" : "Arial",
					"fontsize" : 9.0,
					"id" : "obj-1",
					"maxclass" : "newobj",
					"numinlets" : 1,
					"numoutlets" : 1,
					"outlettype" : [ "" ],
					"patching_rect" : [ 1026.0, 203.0, 47.0, 19.0 ],
					"text" : "pcontrol"
				}

			}
, 			{
				"box" : 				{
					"fontname" : "Arial",
					"fontsize" : 9.0,
					"id" : "obj-3",
					"maxclass" : "newobj",
					"numinlets" : 1,
					"numoutlets" : 1,
					"outlettype" : [ "" ],
					"patching_rect" : [ 1026.0, 177.0, 66.0, 19.0 ],
					"text" : "prepend help"
				}

			}
, 			{
				"box" : 				{
					"id" : "obj-26",
					"maxclass" : "newobj",
					"numinlets" : 2,
					"numoutlets" : 2,
					"outlettype" : [ "", "" ],
					"patching_rect" : [ 204.0, 509.5, 175.0, 22.0 ],
					"text" : "combine s .maxpat @triggers 0"
				}

			}
, 			{
				"box" : 				{
					"id" : "obj-27",
					"maxclass" : "message",
					"numinlets" : 2,
					"numoutlets" : 1,
					"outlettype" : [ "" ],
					"patching_rect" : [ 204.0, 533.5, 84.0, 22.0 ],
					"text" : "loadunique $1"
				}

			}
, 			{
				"box" : 				{
					"id" : "obj-28",
					"maxclass" : "newobj",
					"numinlets" : 1,
					"numoutlets" : 1,
					"outlettype" : [ "" ],
					"patching_rect" : [ 204.0, 560.989745999999968, 53.0, 22.0 ],
					"text" : "pcontrol"
				}

			}
 ],
		"lines" : [ 			{
				"patchline" : 				{
					"destination" : [ "obj-22", 0 ],
					"source" : [ "obj-10", 0 ]
				}

			}
, 			{
				"patchline" : 				{
					"destination" : [ "obj-3", 0 ],
					"source" : [ "obj-12", 1 ]
				}

			}
, 			{
				"patchline" : 				{
					"destination" : [ "obj-43", 0 ],
					"source" : [ "obj-13", 0 ]
				}

			}
, 			{
				"patchline" : 				{
					"destination" : [ "obj-26", 0 ],
					"source" : [ "obj-15", 0 ]
				}

			}
, 			{
				"patchline" : 				{
					"destination" : [ "obj-26", 0 ],
					"source" : [ "obj-16", 0 ]
				}

			}
, 			{
				"patchline" : 				{
					"destination" : [ "obj-26", 0 ],
					"source" : [ "obj-17", 0 ]
				}

			}
, 			{
				"patchline" : 				{
					"destination" : [ "obj-26", 0 ],
					"source" : [ "obj-19", 0 ]
				}

			}
, 			{
				"patchline" : 				{
					"destination" : [ "obj-16", 0 ],
					"source" : [ "obj-2", 0 ]
				}

			}
, 			{
				"patchline" : 				{
					"destination" : [ "obj-19", 0 ],
					"source" : [ "obj-2", 1 ]
				}

			}
, 			{
				"patchline" : 				{
					"destination" : [ "obj-81", 0 ],
					"source" : [ "obj-2", 2 ]
				}

			}
, 			{
				"patchline" : 				{
					"destination" : [ "obj-26", 0 ],
					"source" : [ "obj-20", 0 ]
				}

			}
, 			{
				"patchline" : 				{
					"destination" : [ "obj-58", 0 ],
					"source" : [ "obj-24", 0 ]
				}

			}
, 			{
				"patchline" : 				{
					"destination" : [ "obj-26", 0 ],
					"source" : [ "obj-25", 0 ]
				}

			}
, 			{
				"patchline" : 				{
					"destination" : [ "obj-27", 0 ],
					"source" : [ "obj-26", 0 ]
				}

			}
, 			{
				"patchline" : 				{
					"destination" : [ "obj-28", 0 ],
					"source" : [ "obj-27", 0 ]
				}

			}
, 			{
				"patchline" : 				{
					"destination" : [ "obj-20", 0 ],
					"source" : [ "obj-29", 1 ]
				}

			}
, 			{
				"patchline" : 				{
					"destination" : [ "obj-25", 0 ],
					"source" : [ "obj-29", 0 ]
				}

			}
, 			{
				"patchline" : 				{
					"destination" : [ "obj-30", 0 ],
					"source" : [ "obj-29", 2 ]
				}

			}
, 			{
				"patchline" : 				{
					"destination" : [ "obj-31", 0 ],
					"source" : [ "obj-29", 3 ]
				}

			}
, 			{
				"patchline" : 				{
					"destination" : [ "obj-44", 0 ],
					"source" : [ "obj-29", 4 ]
				}

			}
, 			{
				"patchline" : 				{
					"destination" : [ "obj-1", 0 ],
					"source" : [ "obj-3", 0 ]
				}

			}
, 			{
				"patchline" : 				{
					"destination" : [ "obj-26", 0 ],
					"source" : [ "obj-30", 0 ]
				}

			}
, 			{
				"patchline" : 				{
					"destination" : [ "obj-26", 0 ],
					"source" : [ "obj-31", 0 ]
				}

			}
, 			{
				"patchline" : 				{
					"destination" : [ "obj-26", 0 ],
					"source" : [ "obj-32", 0 ]
				}

			}
, 			{
				"patchline" : 				{
					"destination" : [ "obj-26", 0 ],
					"source" : [ "obj-33", 0 ]
				}

			}
, 			{
				"patchline" : 				{
					"destination" : [ "obj-26", 0 ],
					"source" : [ "obj-34", 0 ]
				}

			}
, 			{
				"patchline" : 				{
					"destination" : [ "obj-26", 0 ],
					"source" : [ "obj-35", 0 ]
				}

			}
, 			{
				"patchline" : 				{
					"destination" : [ "obj-15", 0 ],
					"source" : [ "obj-36", 6 ]
				}

			}
, 			{
				"patchline" : 				{
					"destination" : [ "obj-17", 0 ],
					"source" : [ "obj-36", 8 ]
				}

			}
, 			{
				"patchline" : 				{
					"destination" : [ "obj-32", 0 ],
					"source" : [ "obj-36", 3 ]
				}

			}
, 			{
				"patchline" : 				{
					"destination" : [ "obj-33", 0 ],
					"source" : [ "obj-36", 2 ]
				}

			}
, 			{
				"patchline" : 				{
					"destination" : [ "obj-34", 0 ],
					"source" : [ "obj-36", 1 ]
				}

			}
, 			{
				"patchline" : 				{
					"destination" : [ "obj-35", 0 ],
					"source" : [ "obj-36", 0 ]
				}

			}
, 			{
				"patchline" : 				{
					"destination" : [ "obj-37", 0 ],
					"source" : [ "obj-36", 4 ]
				}

			}
, 			{
				"patchline" : 				{
					"destination" : [ "obj-38", 0 ],
					"source" : [ "obj-36", 5 ]
				}

			}
, 			{
				"patchline" : 				{
					"destination" : [ "obj-40", 0 ],
					"source" : [ "obj-36", 7 ]
				}

			}
, 			{
				"patchline" : 				{
					"destination" : [ "obj-26", 0 ],
					"source" : [ "obj-37", 0 ]
				}

			}
, 			{
				"patchline" : 				{
					"destination" : [ "obj-26", 0 ],
					"source" : [ "obj-38", 0 ]
				}

			}
, 			{
				"patchline" : 				{
					"destination" : [ "obj-26", 0 ],
					"source" : [ "obj-39", 0 ]
				}

			}
, 			{
				"patchline" : 				{
					"destination" : [ "obj-26", 0 ],
					"source" : [ "obj-40", 0 ]
				}

			}
, 			{
				"patchline" : 				{
					"destination" : [ "obj-36", 0 ],
					"source" : [ "obj-41", 0 ]
				}

			}
, 			{
				"patchline" : 				{
					"destination" : [ "obj-26", 0 ],
					"source" : [ "obj-42", 0 ]
				}

			}
, 			{
				"patchline" : 				{
					"destination" : [ "obj-42", 0 ],
					"source" : [ "obj-43", 0 ]
				}

			}
, 			{
				"patchline" : 				{
					"destination" : [ "obj-26", 0 ],
					"source" : [ "obj-44", 0 ]
				}

			}
, 			{
				"patchline" : 				{
					"destination" : [ "obj-39", 0 ],
					"source" : [ "obj-45", 0 ]
				}

			}
, 			{
				"patchline" : 				{
					"destination" : [ "obj-70", 0 ],
					"source" : [ "obj-46", 0 ]
				}

			}
, 			{
				"patchline" : 				{
					"destination" : [ "obj-45", 0 ],
					"source" : [ "obj-47", 0 ]
				}

			}
, 			{
				"patchline" : 				{
					"destination" : [ "obj-72", 0 ],
					"source" : [ "obj-49", 0 ]
				}

			}
, 			{
				"patchline" : 				{
					"destination" : [ "obj-26", 0 ],
					"source" : [ "obj-51", 0 ]
				}

			}
, 			{
				"patchline" : 				{
					"destination" : [ "obj-65", 0 ],
					"source" : [ "obj-53", 0 ]
				}

			}
, 			{
				"patchline" : 				{
					"destination" : [ "obj-48", 0 ],
					"source" : [ "obj-54", 0 ]
				}

			}
, 			{
				"patchline" : 				{
					"destination" : [ "obj-67", 0 ],
					"source" : [ "obj-56", 0 ]
				}

			}
, 			{
				"patchline" : 				{
					"destination" : [ "obj-68", 0 ],
					"source" : [ "obj-57", 0 ]
				}

			}
, 			{
				"patchline" : 				{
					"destination" : [ "obj-62", 0 ],
					"source" : [ "obj-58", 1 ]
				}

			}
, 			{
				"patchline" : 				{
					"destination" : [ "obj-63", 0 ],
					"source" : [ "obj-58", 0 ]
				}

			}
, 			{
				"patchline" : 				{
					"destination" : [ "obj-26", 0 ],
					"source" : [ "obj-60", 0 ]
				}

			}
, 			{
				"patchline" : 				{
					"destination" : [ "obj-26", 0 ],
					"source" : [ "obj-61", 0 ]
				}

			}
, 			{
				"patchline" : 				{
					"destination" : [ "obj-26", 0 ],
					"source" : [ "obj-62", 0 ]
				}

			}
, 			{
				"patchline" : 				{
					"destination" : [ "obj-26", 0 ],
					"source" : [ "obj-63", 0 ]
				}

			}
, 			{
				"patchline" : 				{
					"destination" : [ "obj-26", 0 ],
					"source" : [ "obj-64", 0 ]
				}

			}
, 			{
				"patchline" : 				{
					"destination" : [ "obj-51", 0 ],
					"source" : [ "obj-65", 0 ]
				}

			}
, 			{
				"patchline" : 				{
					"destination" : [ "obj-78", 0 ],
					"source" : [ "obj-65", 1 ]
				}

			}
, 			{
				"patchline" : 				{
					"destination" : [ "obj-26", 0 ],
					"source" : [ "obj-66", 0 ]
				}

			}
, 			{
				"patchline" : 				{
					"destination" : [ "obj-64", 0 ],
					"source" : [ "obj-67", 1 ]
				}

			}
, 			{
				"patchline" : 				{
					"destination" : [ "obj-66", 0 ],
					"source" : [ "obj-67", 0 ]
				}

			}
, 			{
				"patchline" : 				{
					"destination" : [ "obj-60", 0 ],
					"source" : [ "obj-68", 1 ]
				}

			}
, 			{
				"patchline" : 				{
					"destination" : [ "obj-77", 0 ],
					"source" : [ "obj-68", 0 ]
				}

			}
, 			{
				"patchline" : 				{
					"destination" : [ "obj-26", 0 ],
					"source" : [ "obj-69", 0 ]
				}

			}
, 			{
				"patchline" : 				{
					"destination" : [ "obj-2", 0 ],
					"source" : [ "obj-7", 0 ]
				}

			}
, 			{
				"patchline" : 				{
					"destination" : [ "obj-69", 0 ],
					"source" : [ "obj-70", 0 ]
				}

			}
, 			{
				"patchline" : 				{
					"destination" : [ "obj-76", 0 ],
					"source" : [ "obj-71", 0 ]
				}

			}
, 			{
				"patchline" : 				{
					"destination" : [ "obj-74", 0 ],
					"source" : [ "obj-72", 0 ]
				}

			}
, 			{
				"patchline" : 				{
					"destination" : [ "obj-84", 0 ],
					"source" : [ "obj-73", 0 ]
				}

			}
, 			{
				"patchline" : 				{
					"destination" : [ "obj-26", 0 ],
					"source" : [ "obj-74", 0 ]
				}

			}
, 			{
				"patchline" : 				{
					"destination" : [ "obj-26", 0 ],
					"source" : [ "obj-75", 0 ]
				}

			}
, 			{
				"patchline" : 				{
					"destination" : [ "obj-75", 0 ],
					"source" : [ "obj-76", 0 ]
				}

			}
, 			{
				"patchline" : 				{
					"destination" : [ "obj-26", 0 ],
					"source" : [ "obj-77", 0 ]
				}

			}
, 			{
				"patchline" : 				{
					"destination" : [ "obj-26", 0 ],
					"source" : [ "obj-78", 0 ]
				}

			}
, 			{
				"patchline" : 				{
					"destination" : [ "obj-26", 0 ],
					"source" : [ "obj-81", 0 ]
				}

			}
, 			{
				"patchline" : 				{
					"destination" : [ "obj-26", 0 ],
					"source" : [ "obj-83", 0 ]
				}

			}
, 			{
				"patchline" : 				{
					"destination" : [ "obj-83", 0 ],
					"source" : [ "obj-84", 0 ]
				}

			}
, 			{
				"patchline" : 				{
					"destination" : [ "obj-29", 0 ],
					"source" : [ "obj-9", 0 ]
				}

			}
 ],
		"dependency_cache" : [  ],
		"autosave" : 0,
		"styles" : [ 			{
				"name" : "tap",
				"default" : 				{
					"fontname" : [ "Lato Light" ]
				}
,
				"parentstyle" : "",
				"multi" : 0
			}
 ]
	}

}
